<?xml version="1.0" encoding="utf-8"?>
<!-- Generator: Adobe Illustrator 16.0.3, SVG Export Plug-In . SVG Version: 6.00 Build 0)  -->
<!DOCTYPE svg PUBLIC "-//W3C//DTD SVG 1.1//EN" "http://www.w3.org/Graphics/SVG/1.1/DTD/svg11.dtd">
<svg version="1.1" xmlns="http://www.w3.org/2000/svg" xmlns:xlink="http://www.w3.org/1999/xlink" x="0px" y="0px" width="50px"
	 height="50px" viewBox="0 0 50 50" enable-background="new 0 0 50 50" xml:space="preserve">
<g id="Capa_1">
	<path fill-rule="evenodd" clip-rule="evenodd" fill="#CC1D1D" d="M37.827,23.609c0.002-0.046,0.009-0.094,0.003-0.14
		c-0.065-0.634-0.163-1.263-0.313-1.885c-1.257-5.259-5.952-9.493-11.969-9.677c-1.102-0.034-2.193,0.081-3.265,0.335
		c-4.541,1.08-7.972,4.503-9.225,8.701c-0.348,1.167-0.522,2.361-0.527,3.578c-0.001,0.281,0.012,0.563,0.044,0.843
		c0.076,0.671,0.221,1.331,0.402,1.981c0.331,1.194,0.765,2.353,1.244,3.494c0.854,2.033,1.84,4.003,2.885,5.943
		c1.828,3.396,3.821,6.694,5.905,9.938c0.035,0.053,0.059,0.118,0.118,0.152l0,0c0.038,0.104,0.095,0.199,0.178,0.274l0,0
		c0.016,0.071,0.05,0.132,0.112,0.174c0,0,0,0,0-0.001l0,0c0-0.007,0-0.011,0-0.017c0,0.007,0,0.01,0,0.017
		c0.033,0.018,0.051,0.046,0.054,0.083c0,0.04,0.012,0.07,0.052,0.083c0.006,0.046,0.025,0.083,0.068,0.105
		c0.011,0.024,0.019,0.054,0.034,0.077c0.501,0.758,1.003,1.517,1.506,2.273c0.018,0.028,0.035,0.068,0.1,0.054
		c0.051-0.073,0.111-0.156,0.168-0.241c1.784-2.651,3.496-5.352,5.133-8.099c1.376-2.313,2.695-4.656,3.906-7.061
		c0.827-1.64,1.601-3.306,2.252-5.026c0.451-1.193,0.845-2.403,1.063-3.665C37.886,25.143,37.922,24.378,37.827,23.609z
		 M23.068,46.609c0.024,0.041,0.046,0.082,0.059,0.126C23.115,46.691,23.092,46.65,23.068,46.609z M23.129,46.874L23.129,46.874
		L23.129,46.874c0.001-0.004-0.001-0.006,0-0.009C23.128,46.868,23.131,46.87,23.129,46.874c0.047-0.004,0.089,0.004,0.119,0.047
		C23.219,46.878,23.177,46.87,23.129,46.874z M23.307,47.123c0,0.01,0.003,0.018,0.001,0.026l0,0
		C23.309,47.141,23.306,47.133,23.307,47.123z"/>
	<path fill="#FFFFFF" d="M32.904,22.493l-0.489-2.449c-0.123-0.62-0.208-1.045-0.387-1.402c-0.378-0.752-1.056-1.309-1.865-1.531
		c-0.387-0.104-0.822-0.104-1.454-0.104h-7.417c-0.634,0-1.067,0-1.454,0.104c-0.811,0.223-1.489,0.779-1.865,1.531
		c-0.181,0.357-0.264,0.782-0.39,1.402l-0.489,2.449c-0.184,0.914,0.067,1.801,0.595,2.465v2.167c0,1.451,0,2.6,0.122,3.502
		c0.125,0.928,0.386,1.676,0.978,2.27c0.592,0.59,1.341,0.854,2.268,0.977c0.901,0.121,2.051,0.121,3.502,0.121h0.88
		c1.451,0,2.602,0,3.501-0.121c0.926-0.123,1.678-0.387,2.268-0.977c0.592-0.594,0.854-1.342,0.979-2.27
		c0.12-0.902,0.12-2.051,0.12-3.502v-2.167C32.838,24.293,33.088,23.407,32.904,22.493z M23.561,18.193h2.88l0.461,4.613
		c0.113,1.127-0.771,2.101-1.901,2.101c-1.122,0-2-0.961-1.904-2.074L23.561,18.193z M31.125,27.078c0,1.508-0.003,2.58-0.112,3.391
		c-0.104,0.795-0.307,1.254-0.642,1.588c-0.333,0.334-0.792,0.535-1.588,0.641c-0.352,0.047-0.751,0.078-1.214,0.092v-2.18
		c0-0.348,0-0.648-0.022-0.893c-0.025-0.26-0.076-0.516-0.217-0.76c-0.157-0.27-0.381-0.496-0.651-0.652
		c-0.241-0.141-0.501-0.191-0.759-0.215c-0.246-0.023-0.546-0.023-0.893-0.023h-0.051c-0.347,0-0.647,0-0.894,0.023
		c-0.26,0.023-0.518,0.074-0.761,0.215c-0.27,0.156-0.494,0.383-0.65,0.652c-0.141,0.244-0.192,0.5-0.216,0.76
		c-0.022,0.244-0.022,0.545-0.022,0.893v2.18c-0.463-0.014-0.865-0.045-1.217-0.092c-0.794-0.105-1.253-0.307-1.587-0.641
		c-0.334-0.334-0.535-0.793-0.643-1.588c-0.108-0.811-0.109-1.883-0.109-3.391v-1.219c0.357,0.153,0.752,0.235,1.17,0.235
		c1.007,0,1.907-0.499,2.455-1.267c0.56,0.765,1.465,1.267,2.499,1.267c1.032,0,1.938-0.502,2.498-1.267
		c0.548,0.769,1.448,1.267,2.455,1.267c0.418,0,0.813-0.082,1.172-0.235V27.078z"/>
</g>
<g id="Capa_4" display="none">
	
		<ellipse display="inline" fill-rule="evenodd" clip-rule="evenodd" fill="#FFFEFE" cx="25.206" cy="24.941" rx="10.571" ry="11.066"/>
	<path display="inline" fill-rule="evenodd" clip-rule="evenodd" fill="#FFFEFE" d="M14.635,24.187c0,0-0.137,11.897,10.571,11.897
		c10.707,0,10.559-11.897,10.559-11.897H14.635z"/>
</g>
</svg>