<?xml version="1.0" encoding="utf-8"?>
<!-- Generator: Adobe Illustrator 19.0.0, SVG Export Plug-In . SVG Version: 6.00 Build 0)  -->
<svg version="1.1" id="Capa_1" xmlns="http://www.w3.org/2000/svg" xmlns:xlink="http://www.w3.org/1999/xlink" x="0px" y="0px"
	 viewBox="-514 336 50 50" style="enable-background:new -514 336 50 50;" xml:space="preserve" width="50px" height="50px">
<style type="text/css">
	.st0{fill:#3B4E5F;}
	.st1{fill:#FFFEFE;}
	.st2{fill:#FCFCFC;}
	.st3{fill:#FFFFFF;}
</style>
<path class="st0" d="M-476.9,338.3c-5.5,0-10,4.2-10.4,9.6c-0.9-0.3-1.9-0.4-2.9-0.4c-1.1,0-2.2,0.1-3.3,0.3c-4.5,1.1-8,4.5-9.2,8.7
	c-0.3,1.2-0.5,2.4-0.5,3.6c0,0.3,0,0.6,0,0.8c0.1,0.7,0.2,1.3,0.4,2c0.3,1.2,0.8,2.4,1.2,3.5c0.9,2,1.8,4,2.9,5.9
	c1.8,3.4,3.8,6.7,5.9,9.9c0,0.1,0.1,0.1,0.1,0.2c0,0.1,0.1,0.2,0.2,0.3c0,0.1,0,0.1,0.1,0.2c0,0,0,0,0,0.1c0,0,0,0.1,0.1,0.1
	c0,0,0,0.1,0.1,0.1c0,0,0,0,0,0.1c0.5,0.8,1,1.5,1.5,2.3c0,0,0,0.1,0.1,0c0.1-0.1,0.1-0.1,0.2-0.2c1.8-2.7,3.5-5.3,5.1-8.1
	c1.4-2.3,2.7-4.7,3.9-7.1c0.8-1.6,1.6-3.3,2.3-5c0.5-1.2,0.8-2.4,1.1-3.7c0.1-0.8,0.2-1.5,0.1-2.3c0,0,0-0.1,0-0.1
	c0.3,0,0.7,0.1,1,0.1c5.7,0,10.4-4.7,10.4-10.4S-471.2,338.3-476.9,338.3z"/>
<path class="st1" d="M-480,360.5c0,2.1-0.6,4.1-1.6,5.8c-1.9,3.1-5.2,5.3-9,5.3c-3.8,0-7.1-2.1-9-5.3c-1-1.7-1.6-3.7-1.6-5.8
	c0-0.2,0-0.4,0-0.6v0c0,0,0-0.1,0-0.1c0.4-5.8,5-10.3,10.6-10.3c1.2,0,3.3,0.6,3.3,0.6s5.7,1.3,7.1,8.5c0.1,0.4,0.1,0.8,0.1,1.2
	c0,0,0,0,0,0C-480,360-480,360.3-480,360.5z"/>
<path class="st1" d="M-501.1,359.8c0,0-0.1,11.9,10.6,11.9c11.3-0.6,10.6-11.9,10.6-11.9H-501.1z"/>
<path class="st2" d="M-509.8,341.5c-0.1,0-0.1,0-0.2,0c-0.7,0.2-1.1,0.6-1.2,1.3c0,0,0,0.1,0,0.1c0-0.4,0-0.9,0-1.3
	c0-0.1,0-0.1,0.1-0.1C-510.7,341.5-510.2,341.5-509.8,341.5z"/>
<g>
	<path class="st3" d="M-477.3,348.2C-477.3,348.2-477.3,348.2-477.3,348.2c0.5,0.5,1,1,1.4,1.5c0,0,0,0,0,0.1c0,0.8,0,1.7,0,2.5
		c0,0.1,0,0.2,0.1,0.3c0.1,0.2,0.2,0.3,0.4,0.3c0.3,0,0.6-0.1,0.7-0.4c0-0.1,0-0.1,0-0.2c0-0.8,0-1.7,0-2.5c0-0.2,0-0.3,0-0.5
		c0-0.1,0-0.3-0.1-0.4c0-0.1-0.1-0.1-0.1-0.2c-0.4-0.5-0.9-1-1.3-1.4c0,0,0,0,0-0.1c0.1-0.5,0.2-0.9,0.3-1.4c0,0,0,0,0,0
		c0,0,0,0,0,0c0.1,0.3,0.3,0.6,0.4,0.8c0,0,0,0,0,0.1c0.1,0.1,0.1,0.2,0.2,0.2c0.1,0,0.2,0,0.3,0.1c0.3,0.1,0.6,0.1,0.9,0.2
		c0.2,0,0.4,0.1,0.6,0.1c0.3,0,0.5-0.1,0.6-0.4c0-0.1,0-0.1,0-0.2c0-0.1-0.1-0.2-0.1-0.3c-0.1-0.1-0.2-0.1-0.3-0.1
		c-0.4-0.1-0.8-0.2-1.2-0.2c-0.1,0-0.2,0-0.2,0c0,0,0,0-0.1,0c-0.2-0.5-0.5-1-0.7-1.5c-0.1-0.2-0.2-0.3-0.2-0.5
		c-0.1-0.2-0.2-0.4-0.4-0.5c-0.1-0.1-0.3-0.2-0.5-0.2c-0.2,0-0.3,0-0.5,0c-0.1,0-0.1,0.1-0.2,0.1c-0.6,0.3-1.1,0.6-1.7,1
		c-0.1,0-0.1,0.1-0.2,0.1c-0.1,0-0.1,0.1-0.2,0.2c-0.3,0.6-0.6,1.1-0.9,1.7c-0.1,0.2,0,0.5,0.1,0.6c0.2,0.2,0.6,0.2,0.7-0.1
		c0-0.1,0.1-0.1,0.1-0.2c0.2-0.5,0.5-0.9,0.7-1.4c0,0,0,0,0.1-0.1c0.1-0.1,0.3-0.2,0.4-0.2c0,0,0,0,0,0c0,0,0,0,0,0.1
		c-0.1,0.6-0.3,1.3-0.4,1.9c0,0.1,0,0.2-0.1,0.3c0,0.2-0.1,0.5-0.1,0.7c0,0.2-0.1,0.4-0.1,0.6c0,0.2-0.1,0.5-0.1,0.7
		c0,0.2-0.1,0.3-0.1,0.5c0,0,0,0.1,0,0.1c-0.3,0.4-0.7,0.8-1,1.2c-0.2,0.2-0.3,0.4-0.5,0.6c-0.1,0.1-0.2,0.3-0.2,0.4
		c0,0.2,0.1,0.4,0.3,0.5c0.3,0.1,0.5,0.1,0.7-0.2c0.2-0.3,0.4-0.5,0.6-0.8c0.4-0.5,0.8-0.9,1.2-1.4c0-0.1,0.1-0.1,0.1-0.2
		c0-0.1,0.1-0.2,0.1-0.3c0.1-0.3,0.1-0.6,0.2-0.9C-477.4,348.7-477.3,348.5-477.3,348.2C-477.3,348.2-477.3,348.2-477.3,348.2z"/>
	<path class="st3" d="M-477.4,342.1c0,0.5,0.4,1,1,1c0.6,0,1-0.4,1-1c0-0.5-0.4-1-1-1C-476.9,341.1-477.4,341.6-477.4,342.1z"/>
</g>
</svg>
