<?xml version="1.0" encoding="utf-8"?>
<!-- Generator: Adobe Illustrator 16.0.3, SVG Export Plug-In . SVG Version: 6.00 Build 0)  -->
<!DOCTYPE svg PUBLIC "-//W3C//DTD SVG 1.1//EN" "http://www.w3.org/Graphics/SVG/1.1/DTD/svg11.dtd">
<svg version="1.1" xmlns="http://www.w3.org/2000/svg" xmlns:xlink="http://www.w3.org/1999/xlink" x="0px" y="0px" width="50px"
	 height="50px" viewBox="0 0 50 50" enable-background="new 0 0 50 50" xml:space="preserve">
<g id="Capa_1">
	<path fill-rule="evenodd" clip-rule="evenodd" fill="#FFFFFF" d="M37.827,23.609c0.002-0.046,0.009-0.094,0.003-0.14
		c-0.065-0.634-0.163-1.263-0.313-1.885c-1.257-5.259-5.952-9.493-11.969-9.677c-1.102-0.034-2.193,0.081-3.265,0.335
		c-4.541,1.08-7.972,4.503-9.225,8.701c-0.348,1.167-0.522,2.361-0.527,3.578c-0.001,0.281,0.012,0.563,0.044,0.843
		c0.076,0.671,0.221,1.331,0.402,1.981c0.331,1.194,0.765,2.353,1.244,3.494c0.854,2.033,1.84,4.003,2.885,5.943
		c1.828,3.396,3.821,6.694,5.905,9.938c0.035,0.053,0.059,0.118,0.118,0.152l0,0c0.038,0.104,0.095,0.199,0.178,0.274l0,0
		c0.016,0.071,0.05,0.132,0.112,0.174c0,0,0,0,0-0.001l0,0c0-0.007,0-0.011,0-0.017c0,0.007,0,0.01,0,0.017
		c0.033,0.018,0.051,0.046,0.054,0.083c0,0.04,0.012,0.07,0.052,0.083c0.006,0.046,0.025,0.083,0.068,0.105
		c0.011,0.024,0.019,0.054,0.034,0.077c0.501,0.758,1.003,1.517,1.506,2.273c0.018,0.028,0.035,0.068,0.1,0.054
		c0.051-0.073,0.111-0.156,0.168-0.241c1.784-2.651,3.496-5.352,5.133-8.099c1.376-2.313,2.695-4.656,3.906-7.061
		c0.827-1.64,1.601-3.306,2.252-5.026c0.451-1.193,0.845-2.403,1.063-3.665C37.886,25.143,37.922,24.378,37.827,23.609z
		 M23.068,46.609c0.024,0.041,0.046,0.082,0.059,0.126C23.115,46.691,23.092,46.65,23.068,46.609z M23.129,46.874L23.129,46.874
		L23.129,46.874c0.001-0.004-0.001-0.006,0-0.009C23.128,46.868,23.131,46.87,23.129,46.874c0.047-0.004,0.089,0.004,0.119,0.047
		C23.219,46.878,23.177,46.87,23.129,46.874z M23.307,47.123c0,0.01,0.003,0.018,0.001,0.026l0,0
		C23.309,47.141,23.306,47.133,23.307,47.123z"/>
	<g>
		<path fill-rule="evenodd" clip-rule="evenodd" d="M31.128,26.466c-0.047-0.022-0.094-0.042-0.141-0.062
			c-0.723-0.291-1.445-0.588-2.17-0.869c-0.252-0.098-0.434-0.254-0.547-0.493c-0.301-0.629-0.582-1.268-0.77-1.943
			c-0.102-0.376-0.148-0.766-0.305-1.127c-0.186-0.436-0.512-0.697-0.974-0.79c-0.531-0.105-1.059-0.214-1.588-0.314
			c-0.445-0.083-0.83,0.04-1.154,0.356c-0.063,0.063-0.125,0.129-0.192,0.189c-0.908,0.83-1.817,1.66-2.726,2.488
			c-0.266,0.243-0.413,0.545-0.436,0.903c-0.069,1.086-0.135,2.173-0.202,3.261c-0.029,0.475,0.31,0.867,0.777,0.898
			c0.466,0.031,0.854-0.318,0.883-0.793c0.063-1.011,0.125-2.021,0.184-3.031c0.004-0.071,0.03-0.117,0.08-0.163
			c0.309-0.279,0.612-0.562,0.922-0.84c0.172-0.153,0.331-0.322,0.517-0.457c0-0.001,0-0.002-0.001-0.003
			c0,0.001,0.001,0.001,0.002,0.003c0.004-0.006,0.009-0.012,0.014-0.017c0.001,0.005,0.003,0.009,0.001,0.013
			c-0.004,0.01-0.01,0.012-0.016,0.004l0,0h-0.001c0.027,0.045,0,0.089-0.008,0.131c-0.167,0.879-0.329,1.76-0.521,2.635
			c-0.137,0.623-0.065,1.205,0.316,1.74c0.198,0.277,0.376,0.572,0.567,0.855c0.586,0.871,1.227,1.705,1.8,2.584
			c0.379,0.582,0.684,1.195,0.83,1.881c0.21,0.986,0.431,1.967,0.647,2.949c0.119,0.525,0.521,0.904,0.996,0.939
			c0.764,0.053,1.322-0.611,1.152-1.371c-0.232-1.041-0.494-2.076-0.678-3.127c-0.182-1.033-0.613-1.936-1.24-2.758
			c-0.324-0.424-0.641-0.859-0.958-1.289c-0.076-0.102-0.131-0.18-0.09-0.344c0.156-0.65,0.272-1.309,0.401-1.964
			c0.061-0.308,0.123-0.614,0.189-0.95c0.129,0.24,0.236,0.454,0.352,0.664c0.166,0.303,0.396,0.522,0.73,0.648
			c0.627,0.233,1.242,0.491,1.861,0.738c0.281,0.113,0.563,0.232,0.848,0.34c0.445,0.168,0.93-0.031,1.098-0.443
			C31.755,27.115,31.569,26.675,31.128,26.466z"/>
		<path fill-rule="evenodd" clip-rule="evenodd" d="M22.541,28.971c-0.064-0.1-0.128-0.199-0.194-0.303
			c-0.034,0.043-0.033,0.084-0.039,0.121c-0.093,0.6-0.18,1.201-0.284,1.801c-0.109,0.633-0.278,1.246-0.621,1.797
			c-0.307,0.496-0.621,0.986-0.933,1.479c-0.313,0.492-0.632,0.977-0.938,1.473c-0.333,0.539-0.182,1.219,0.33,1.537
			c0.521,0.324,1.177,0.162,1.522-0.377c0.699-1.092,1.395-2.188,2.096-3.279c0.211-0.328,0.359-0.682,0.427-1.064
			c0.043-0.246,0.082-0.49,0.125-0.734c0.015-0.076-0.002-0.137-0.045-0.203C23.503,30.469,23.022,29.719,22.541,28.971z"/>
		<path fill-rule="evenodd" clip-rule="evenodd" d="M26.454,20.598c1.109-0.001,2.004-0.897,2-2.003
			c-0.002-1.101-0.895-1.991-1.998-1.994c-1.107-0.003-2.005,0.892-2.005,1.999C24.451,19.708,25.342,20.599,26.454,20.598z"/>
	</g>
</g>
<g id="Capa_4" display="none">
	
		<ellipse display="inline" fill-rule="evenodd" clip-rule="evenodd" fill="#FFFEFE" cx="25.206" cy="24.941" rx="10.571" ry="11.066"/>
	<path display="inline" fill-rule="evenodd" clip-rule="evenodd" fill="#FFFEFE" d="M14.635,24.187c0,0-0.137,11.897,10.571,11.897
		c10.707,0,10.559-11.897,10.559-11.897H14.635z"/>
</g>
</svg>