<?xml version="1.0" encoding="utf-8"?>
<!-- Generator: Adobe Illustrator 16.0.3, SVG Export Plug-In . SVG Version: 6.00 Build 0)  -->
<!DOCTYPE svg PUBLIC "-//W3C//DTD SVG 1.1//EN" "http://www.w3.org/Graphics/SVG/1.1/DTD/svg11.dtd">
<svg version="1.1" id="Capa_1" xmlns="http://www.w3.org/2000/svg" xmlns:xlink="http://www.w3.org/1999/xlink" x="0px" y="0px"
	 width="50px" height="50px" viewBox="0 0 50 50" enable-background="new 0 0 50 50" xml:space="preserve">
<g id="Capa_1_1_">
	<path fill="#FFFFFF" d="M37.827,23.609c0.002-0.046,0.009-0.094,0.003-0.14c-0.064-0.634-0.163-1.263-0.313-1.885
		c-1.258-5.259-5.953-9.493-11.97-9.677c-1.102-0.034-2.193,0.081-3.265,0.335c-4.541,1.08-7.972,4.503-9.225,8.701
		c-0.348,1.167-0.522,2.361-0.527,3.578c-0.001,0.281,0.012,0.563,0.044,0.843c0.076,0.671,0.221,1.331,0.402,1.98
		c0.331,1.194,0.765,2.354,1.244,3.494c0.854,2.033,1.84,4.003,2.885,5.943c1.828,3.396,3.821,6.694,5.905,9.938
		c0.035,0.053,0.059,0.117,0.118,0.151l0,0c0.038,0.104,0.095,0.198,0.178,0.274l0,0c0.016,0.07,0.05,0.131,0.112,0.174
		c0,0,0,0,0-0.002l0,0c0-0.006,0-0.01,0-0.017c0,0.007,0,0.011,0,0.017c0.033,0.019,0.051,0.047,0.054,0.084
		c0,0.039,0.012,0.07,0.052,0.082c0.006,0.047,0.025,0.084,0.068,0.105c0.011,0.024,0.019,0.055,0.034,0.077
		c0.501,0.758,1.003,1.517,1.506,2.272c0.018,0.028,0.035,0.068,0.1,0.055c0.051-0.073,0.111-0.156,0.168-0.241
		c1.785-2.651,3.496-5.353,5.133-8.099c1.376-2.313,2.694-4.656,3.905-7.062c0.828-1.64,1.602-3.306,2.252-5.026
		c0.451-1.192,0.846-2.402,1.063-3.664C37.886,25.143,37.922,24.378,37.827,23.609z M23.068,46.609
		c0.024,0.041,0.046,0.082,0.059,0.125C23.115,46.691,23.092,46.65,23.068,46.609z M23.129,46.874L23.129,46.874L23.129,46.874
		c0.001-0.004-0.001-0.006,0-0.009C23.128,46.868,23.131,46.87,23.129,46.874c0.047-0.004,0.089,0.004,0.119,0.047
		C23.219,46.878,23.177,46.87,23.129,46.874z M23.307,47.123c0,0.01,0.003,0.018,0.001,0.025l0,0
		C23.309,47.141,23.306,47.133,23.307,47.123z"/>
</g>
<g id="Capa_4" display="none">
	<ellipse display="inline" fill="#FFFEFE" cx="25.206" cy="24.941" rx="10.571" ry="11.066"/>
	<path display="inline" fill="#FFFEFE" d="M14.635,24.187c0,0-0.137,11.897,10.571,11.897c10.707,0,10.56-11.897,10.56-11.897
		H14.635z"/>
</g>
<g>
	<path fill="#000000" d="M31.624,22.751H21.107c-0.077,0-0.144-0.026-0.202-0.076c-0.057-0.051-0.092-0.115-0.104-0.191l-0.61-3.13
		c-0.026-0.178-0.102-0.321-0.229-0.429c-0.128-0.108-0.28-0.162-0.458-0.162h-2.787c-0.191,0-0.354,0.066-0.487,0.2
		c-0.134,0.133-0.2,0.296-0.2,0.486v0.096c0,0.191,0.066,0.356,0.2,0.496c0.133,0.14,0.296,0.21,0.487,0.21h1.947
		c0.05,0,0.094,0.016,0.133,0.047c0.038,0.031,0.064,0.073,0.077,0.124l1.947,10.385c0.037,0.239,0.165,0.419,0.38,0.532
		c0.103,0.064,0.217,0.096,0.344,0.096h0.325c-0.28,0.318-0.413,0.69-0.401,1.117c0.013,0.426,0.173,0.786,0.478,1.079
		c0.306,0.293,0.671,0.438,1.097,0.438c0.427,0,0.795-0.146,1.107-0.438c0.312-0.293,0.475-0.653,0.487-1.079
		c0.013-0.427-0.128-0.799-0.42-1.117h3.55c-0.293,0.318-0.43,0.69-0.411,1.117c0.021,0.426,0.183,0.786,0.487,1.079
		c0.306,0.293,0.671,0.438,1.098,0.438s0.791-0.146,1.097-0.438c0.307-0.293,0.465-0.653,0.478-1.079
		c0.012-0.427-0.12-0.799-0.4-1.117h0.324c0.19,0,0.354-0.067,0.487-0.198c0.133-0.135,0.201-0.299,0.201-0.488v-0.152
		c0-0.192-0.07-0.355-0.211-0.487c-0.14-0.133-0.306-0.2-0.497-0.2h-7.997c-0.076,0-0.143-0.026-0.2-0.076
		c-0.057-0.052-0.093-0.108-0.105-0.172l-0.191-1.031c-0.012-0.102,0.014-0.19,0.077-0.267s0.14-0.108,0.228-0.096h8.78
		c0.166,0,0.31-0.052,0.43-0.153c0.12-0.101,0.195-0.233,0.22-0.4l0.629-4.18c0.039-0.203-0.008-0.385-0.143-0.543
		C32.015,22.831,31.84,22.751,31.624,22.751z"/>
</g>
</svg>