<?xml version="1.0" encoding="utf-8"?>
<!-- Generator: Adobe Illustrator 16.0.3, SVG Export Plug-In . SVG Version: 6.00 Build 0)  -->
<!DOCTYPE svg PUBLIC "-//W3C//DTD SVG 1.1//EN" "http://www.w3.org/Graphics/SVG/1.1/DTD/svg11.dtd">
<svg version="1.1" xmlns="http://www.w3.org/2000/svg" xmlns:xlink="http://www.w3.org/1999/xlink" x="0px" y="0px" width="50px"
	 height="50px" viewBox="0 0 50 50" enable-background="new 0 0 50 50" xml:space="preserve">
<g id="Capa_1">
	<path fill-rule="evenodd" clip-rule="evenodd" fill="#17376A" d="M37.827,23.609c0.002-0.046,0.009-0.094,0.003-0.14
		c-0.065-0.634-0.163-1.263-0.313-1.885c-1.257-5.259-5.952-9.493-11.969-9.677c-1.102-0.034-2.193,0.081-3.265,0.335
		c-4.541,1.08-7.972,4.503-9.225,8.701c-0.348,1.167-0.522,2.361-0.527,3.578c-0.001,0.281,0.012,0.563,0.044,0.843
		c0.076,0.671,0.221,1.331,0.402,1.981c0.331,1.194,0.765,2.353,1.244,3.494c0.854,2.033,1.84,4.003,2.885,5.943
		c1.828,3.396,3.821,6.694,5.905,9.938c0.035,0.053,0.059,0.118,0.118,0.152l0,0c0.038,0.104,0.095,0.199,0.178,0.274l0,0
		c0.016,0.071,0.05,0.132,0.112,0.174c0,0,0,0,0-0.001l0,0c0-0.007,0-0.011,0-0.017c0,0.007,0,0.01,0,0.017
		c0.033,0.018,0.051,0.046,0.054,0.083c0,0.04,0.012,0.07,0.052,0.083c0.006,0.046,0.025,0.083,0.068,0.105
		c0.011,0.024,0.019,0.054,0.034,0.077c0.501,0.758,1.003,1.517,1.506,2.273c0.018,0.028,0.035,0.068,0.1,0.054
		c0.051-0.073,0.111-0.156,0.168-0.241c1.784-2.651,3.496-5.352,5.133-8.099c1.376-2.313,2.695-4.656,3.906-7.061
		c0.827-1.64,1.601-3.306,2.252-5.026c0.451-1.193,0.845-2.403,1.063-3.665C37.886,25.143,37.922,24.378,37.827,23.609z
		 M23.068,46.609c0.024,0.041,0.046,0.082,0.059,0.126C23.115,46.691,23.092,46.65,23.068,46.609z M23.129,46.874L23.129,46.874
		L23.129,46.874c0.001-0.004-0.001-0.006,0-0.009C23.128,46.868,23.131,46.87,23.129,46.874c0.047-0.004,0.089,0.004,0.119,0.047
		C23.219,46.878,23.177,46.87,23.129,46.874z M23.307,47.123c0,0.01,0.003,0.018,0.001,0.026l0,0
		C23.309,47.141,23.306,47.133,23.307,47.123z"/>
</g>
<g id="Capa_4">
	<ellipse fill-rule="evenodd" clip-rule="evenodd" fill="#FFFEFE" cx="25.206" cy="24.941" rx="10.571" ry="11.066"/>
	<path fill-rule="evenodd" clip-rule="evenodd" fill="#FFFEFE" d="M14.635,24.187c0,0-0.137,11.897,10.571,11.897
		c10.707,0,10.559-11.897,10.559-11.897H14.635z"/>
</g>
</svg>

