<?xml version="1.0" encoding="utf-8"?>
<!-- Generator: Adobe Illustrator 16.0.3, SVG Export Plug-In . SVG Version: 6.00 Build 0)  -->
<!DOCTYPE svg PUBLIC "-//W3C//DTD SVG 1.1//EN" "http://www.w3.org/Graphics/SVG/1.1/DTD/svg11.dtd">
<svg version="1.1" xmlns="http://www.w3.org/2000/svg" xmlns:xlink="http://www.w3.org/1999/xlink" x="0px" y="0px" width="62px"
	 height="50px" viewBox="0 0 62 50" enable-background="new 0 0 62 50" xml:space="preserve">
<g id="Capa_2">
	<polygon fill="#FFFFFF" points="2.188,32.585 2.188,16.255 7.356,15.395 56.345,15.395 60.584,17.496 60.584,27.142 60.067,33.539 
		53.349,32.775 	"/>
</g>
<g id="Capa_1">
	<g id="Layer_1" display="none">
		<path display="inline" fill="#1E8449" d="M30.619,0.129C19.022,0.262,10.69,10.404,12.464,21.149
			c1.876,11.365,12.54,18.107,17.864,28.656c0.213,0.421,0.835,0.421,1.047,0c5.851-11.592,18.149-18.588,18.149-32.172
			C49.524,7.893,41.038,0.011,30.619,0.129z M30.851,29.888c-7.219,0-13.071-5.487-13.071-12.254S23.632,5.379,30.851,5.379
			c7.219,0,13.071,5.486,13.071,12.254S38.07,29.888,30.851,29.888z"/>
	</g>
	<path fill="#1E8449" d="M61.794,16.347c-0.63-1.733-2.342-2.761-4.638-2.762c-8.698-0.003-17.396-0.001-26.093-0.001
		c-7.384,0-14.769,0-22.153,0c-1.442,0-2.886-0.022-4.327,0.005c-2.603,0.049-4.575,1.688-4.579,3.855
		C0.002,18.328,0.001,19.183,0,20.015h-0.007c-0.001,1.605-0.001,3.169-0.001,4.739h0.002c0.003,2.188,0.006,4.48,0.01,7.005
		c0.004,2.107,1.965,3.439,4.392,3.486c1.14,0.02,19.57,0,19.57,0l7.057,10.663l6.504-10.663c0,0,16.986,0,19.686,0
		s4.786-1.924,4.789-4.297c0-2.255,0.002-4.281,0.002-6.195h0.002c0-1.57,0-3.127,0-4.739c0-0.773,0-1.571,0-2.401
		C62.004,17.181,61.941,16.759,61.794,16.347z M59.105,24.753c-0.002,1.345,0,2.69-0.002,4.036
		c-0.002,1.707-1.765,2.881-4.315,2.881c-11.447,0.002-17.745-0.005-17.745-0.005l-12.221-0.001c0,0-16.612,0.016-17.64,0.001
		c-2.187-0.034-3.955-1.241-3.958-2.755c-0.003-1.386-0.001-2.771-0.003-4.157H3.218c0-1.58-0.005-3.159-0.003-4.739h0.008
		c0-0.212,0-0.425,0.001-0.638c0.003-1.559,1.782-2.736,4.127-2.771c1.299-0.02,2.6-0.004,3.901-0.004c6.656,0,13.312,0,19.968,0
		c7.84,0,15.678-0.002,23.519,0.001c2.072,0.001,3.613,0.739,4.178,1.985c0.138,0.296,0.19,0.599,0.19,0.91c0,0.173,0,0.346,0,0.517
		C59.107,21.594,59.105,23.174,59.105,24.753L59.105,24.753z"/>
</g>
<g id="Capa_3">
</g>
</svg>